<?xml version="1.0" encoding="UTF-8" standalone="no"?>
<!DOCTYPE svg PUBLIC "-//W3C//DTD SVG 1.1//EN" "http://www.w3.org/Graphics/SVG/1.1/DTD/svg11.dtd">
<svg width="100%" height="100%" viewBox="0 0 1100 700" version="1.1" xmlns="http://www.w3.org/2000/svg" xmlns:xlink="http://www.w3.org/1999/xlink" xml:space="preserve" xmlns:serif="http://www.serif.com/" style="fill-rule:evenodd;clip-rule:evenodd;stroke-linejoin:round;stroke-miterlimit:2;">
    <g transform="matrix(10,0,0,10,375.721294,350)">
        <g transform="matrix(1,0,0,1,-25,-25)">
            <g transform="matrix(2.5,0,0,2.5,0,0)">
                <path d="M3,7.25C3,6.701 3.451,6.25 4,6.25L16,6.25C16.549,6.25 17,6.701 17,7.25C17,7.799 16.549,8.25 16,8.25L4,8.25C3.451,8.25 3,7.799 3,7.25M3,12.75C3,12.201 3.451,11.75 4,11.75L16,11.75C16.549,11.75 17,12.201 17,12.75C17,13.299 16.549,13.75 16,13.75L4,13.75C3.451,13.75 3,13.299 3,12.75" style="fill:rgb(245,245,245);"/>
                <path d="M7.833,3.004C8.349,3.047 8.75,3.483 8.75,4.001C8.75,4.028 8.749,4.056 8.747,4.084L7.747,16.084C7.704,16.6 7.267,17.001 6.75,17.001C6.201,17.001 5.75,16.549 5.75,16.001C5.75,15.973 5.751,15.945 5.753,15.917L6.753,3.917C6.799,3.37 7.286,2.958 7.833,3.004M13.333,3.004C13.849,3.047 14.25,3.483 14.25,4.001C14.25,4.028 14.249,4.056 14.247,4.084L13.247,16.084C13.202,16.598 12.767,16.997 12.251,16.997C11.702,16.997 11.251,16.545 11.251,15.997C11.251,15.97 11.252,15.943 11.254,15.917L12.254,3.917C12.3,3.37 12.787,2.958 13.334,3.004" style="fill:rgb(245,245,245);"/>
            </g>
        </g>
    </g>
    <g transform="matrix(1,0,0,1,29,70.453227)">
        <path d="M861.59,339.972C861.59,350.415 859.016,361.717 853.869,373.877C848.722,386.036 840.628,397.972 829.587,409.684C818.546,421.396 804.447,430.907 787.29,438.218C770.132,445.528 750.14,449.184 727.312,449.184C710.006,449.184 694.265,447.543 680.092,444.26C665.918,440.978 653.05,435.868 641.487,428.93C629.924,421.993 619.294,412.854 609.596,401.515C600.943,391.221 593.557,379.695 587.44,366.939C581.323,354.183 576.735,340.568 573.677,326.096C570.618,311.624 569.089,296.257 569.089,279.994C569.089,253.586 572.931,229.939 580.614,209.051C588.298,188.164 599.301,170.297 613.624,155.452C627.947,140.607 644.732,129.305 663.978,121.547C683.225,113.789 703.739,109.91 725.522,109.91C752.079,109.91 775.727,115.206 796.465,125.799C817.204,136.392 833.093,149.484 844.134,165.075C855.174,180.666 860.695,195.4 860.695,209.275C860.695,216.884 858.009,223.598 852.638,229.417C847.267,235.235 840.777,238.145 833.168,238.145C824.663,238.145 818.285,236.13 814.033,232.102C809.781,228.074 805.044,221.136 799.822,211.289C791.169,195.027 780.986,182.867 769.274,174.81C757.562,166.754 743.127,162.725 725.97,162.725C698.667,162.725 676.921,173.095 660.733,193.833C644.545,214.571 636.451,244.038 636.451,282.232C636.451,307.745 640.032,328.968 647.194,345.902C654.355,362.836 664.5,375.48 677.63,383.836C690.759,392.191 706.126,396.368 723.732,396.368C742.829,396.368 758.979,391.631 772.183,382.157C785.387,372.683 795.346,358.77 802.06,340.419C804.895,331.766 808.401,324.716 812.579,319.27C816.756,313.825 823.47,311.102 832.72,311.102C840.628,311.102 847.416,313.862 853.086,319.382C858.755,324.903 861.59,331.766 861.59,339.972Z" style="fill:rgb(245,245,245);fill-rule:nonzero;"/>
    </g>
</svg>
